<svg width="950" height="949" viewBox="0 0 950 949" fill="none" xmlns="http://www.w3.org/2000/svg">
<path fill-rule="evenodd" clip-rule="evenodd" d="M474.59 870.934C584.316 976.188 758.6 974.803 866.625 866.777C974.648 758.754 976.037 584.478 870.792 474.752C976.524 365.055 975.297 190.411 867.109 82.2235C758.924 -25.9611 584.287 -27.1918 474.59 78.5312C364.894 -27.1918 190.257 -25.9611 82.0721 82.2235C-26.1156 190.411 -27.3433 365.055 78.3891 474.752C-26.8561 584.478 -25.4672 758.754 82.5555 866.777C190.581 974.803 364.865 976.188 474.59 870.934Z" fill="#00FF00"/>
<path d="M276.977 427.948C234.771 427.948 200.556 393.733 200.556 351.526L200.556 198.683C200.556 156.477 234.771 122.262 276.977 122.262C319.183 122.262 353.399 156.477 353.399 198.683V282.501V351.526C353.399 393.733 319.183 427.948 276.977 427.948Z" fill="white"/>
<circle cx="683.462" cy="274.933" r="107.556" stroke="white" stroke-width="90.5735"/>
<path fill-rule="evenodd" clip-rule="evenodd" d="M481.589 506.225C488.221 512.857 498.974 512.857 505.606 506.225C512.238 499.593 512.238 488.84 505.606 482.208L497.82 474.421L506.044 466.197C512.676 459.564 512.676 448.812 506.044 442.18C499.412 435.548 488.659 435.548 482.027 442.18L473.803 450.404L465.578 442.18C458.946 435.548 448.193 435.548 441.561 442.18C434.929 448.812 434.929 459.564 441.561 466.197L449.786 474.421L441.999 482.208C435.367 488.84 435.367 499.593 441.999 506.225C448.631 512.857 459.384 512.857 466.016 506.225L473.803 498.438L481.589 506.225Z" fill="white"/>
</svg>
