<svg width="950" height="949" viewBox="0 0 950 949" fill="none" xmlns="http://www.w3.org/2000/svg">
<path fill-rule="evenodd" clip-rule="evenodd" d="M866.626 866.777C758.6 974.803 584.316 976.188 474.59 870.934C364.865 976.188 190.581 974.803 82.5555 866.777C-25.4672 758.754 -26.8561 584.478 78.3891 474.752C-27.3433 365.055 -26.1156 190.411 82.0721 82.2235C190.257 -25.9611 364.894 -27.1918 474.59 78.5312C584.287 -27.1918 758.924 -25.9611 867.109 82.2235C975.297 190.411 976.524 365.055 870.792 474.752C976.037 584.478 974.648 758.754 866.626 866.777ZM200.556 351.526C200.556 393.733 234.771 427.948 276.977 427.948C319.183 427.948 353.399 393.733 353.399 351.526V282.501V198.683C353.399 156.477 319.183 122.262 276.977 122.262C234.771 122.262 200.556 156.477 200.556 198.683V351.526ZM683.462 337.202C717.852 337.202 745.731 309.323 745.731 274.933C745.731 240.542 717.852 212.663 683.462 212.663C649.072 212.663 621.193 240.542 621.193 274.933C621.193 309.323 649.072 337.202 683.462 337.202ZM683.462 427.776C767.875 427.776 836.305 359.345 836.305 274.933C836.305 190.52 767.875 122.09 683.462 122.09C599.049 122.09 530.619 190.52 530.619 274.933C530.619 359.345 599.049 427.776 683.462 427.776ZM505.606 506.225C498.974 512.857 488.221 512.857 481.589 506.225L473.803 498.438L466.016 506.225C459.384 512.857 448.631 512.857 441.999 506.225C435.367 499.592 435.367 488.84 441.999 482.208L449.786 474.421L441.561 466.196C434.929 459.564 434.929 448.811 441.561 442.179C448.193 435.547 458.946 435.547 465.578 442.179L473.803 450.404L482.027 442.179C488.66 435.547 499.412 435.547 506.044 442.179C512.676 448.811 512.676 459.564 506.044 466.196L497.82 474.421L505.606 482.208C512.238 488.84 512.238 499.592 505.606 506.225Z" fill="white"/>
</svg>
