<svg width="2848" height="1023" viewBox="0 0 2848 1023" fill="none" xmlns="http://www.w3.org/2000/svg">
<path d="M1128.04 13.1264H1298.48V635H1128.04V13.1264ZM1580.15 635H1376.54L1514.73 400.07C1537.77 361.376 1546.06 339.265 1546.06 318.075C1546.06 295.964 1536.84 274.774 1514.73 237.001L1382.07 13.1264H1581.07L1675.04 183.566C1686.09 203.834 1695.31 225.024 1701.76 247.135H1750.58C1757.03 225.024 1766.25 203.834 1777.3 183.566L1871.27 13.1264H2070.27L1937.61 237.001C1915.5 274.774 1906.28 295.964 1906.28 318.075C1906.28 339.265 1914.58 361.376 1937.61 400.07L2075.8 635H1872.2L1777.3 465.482C1766.25 445.213 1757.03 424.945 1750.58 403.755H1701.76C1695.31 424.945 1686.09 445.213 1675.04 465.482L1580.15 635ZM2435.62 648.819C2247.67 648.819 2107.64 509.704 2107.64 324.524C2107.64 139.344 2247.67 0.228294 2435.62 0.228294C2623.56 0.228294 2763.6 139.344 2763.6 324.524C2763.6 509.704 2623.56 648.819 2435.62 648.819ZM2435.62 487.593C2522.22 487.593 2588.55 416.653 2588.55 324.524C2588.55 232.394 2522.22 161.455 2435.62 161.455C2349.02 161.455 2282.68 232.394 2282.68 324.524C2282.68 416.653 2349.02 487.593 2435.62 487.593Z" fill="white"/>
<path d="M1169.74 943.7L1114.29 944V741.698H1191.92C1251.86 741.698 1286.93 770.17 1286.93 817.224C1286.93 865.776 1253.66 894.548 1194.92 894.548H1169.74V943.7ZM1193.42 792.648H1169.74V843.598H1193.42C1218.29 843.598 1229.98 834.307 1229.98 817.224C1229.98 801.339 1217.39 792.648 1193.42 792.648ZM1373.14 944H1318.29V741.698H1403.11C1451.06 741.698 1487.63 764.176 1487.63 808.832C1487.63 835.506 1472.64 857.385 1448.97 864.877C1459.16 871.471 1465.75 883.159 1474.74 901.442L1495.42 944H1435.18L1416.3 905.937C1409.41 892.151 1401.61 887.056 1383.63 887.056H1373.44L1373.14 944ZM1403.71 792.648H1373.74L1373.44 837.904H1403.11C1419.3 837.904 1430.68 828.912 1430.68 814.527C1430.68 799.242 1419.3 792.648 1403.71 792.648ZM1623.08 948.496C1561.94 948.496 1516.38 903.24 1516.38 842.999C1516.38 782.758 1561.94 737.502 1623.08 737.502C1684.22 737.502 1729.77 782.758 1729.77 842.999C1729.77 903.24 1684.22 948.496 1623.08 948.496ZM1623.08 896.047C1651.25 896.047 1672.83 872.969 1672.83 842.999C1672.83 813.028 1651.25 789.951 1623.08 789.951C1594.91 789.951 1573.33 813.028 1573.33 842.999C1573.33 872.969 1594.91 896.047 1623.08 896.047ZM1913.33 741.698V792.648H1856.09V944H1800.64V792.648H1743.4V741.698H1913.33ZM2033.42 948.496C1972.28 948.496 1926.72 903.24 1926.72 842.999C1926.72 782.758 1972.28 737.502 2033.42 737.502C2094.56 737.502 2140.11 782.758 2140.11 842.999C2140.11 903.24 2094.56 948.496 2033.42 948.496ZM2033.42 896.047C2061.59 896.047 2083.17 872.969 2083.17 842.999C2083.17 813.028 2061.59 789.951 2033.42 789.951C2005.25 789.951 1983.67 813.028 1983.67 842.999C1983.67 872.969 2005.25 896.047 2033.42 896.047ZM2264.93 948.496C2204.39 948.496 2158.23 902.041 2158.23 842.999C2158.23 783.956 2204.39 737.502 2264.93 737.502C2300.9 737.502 2336.26 756.683 2350.95 789.951L2305.69 815.126C2297.3 800.141 2285.91 789.951 2262.53 789.951C2234.06 789.951 2215.18 811.529 2215.18 842.999C2215.18 874.468 2233.46 896.047 2262.53 896.047C2285.91 896.047 2298.2 885.857 2305.69 870.871L2350.95 896.047C2336.26 929.314 2300.9 948.496 2264.93 948.496ZM2468.05 948.496C2406.91 948.496 2361.36 903.24 2361.36 842.999C2361.36 782.758 2406.91 737.502 2468.05 737.502C2529.19 737.502 2574.75 782.758 2574.75 842.999C2574.75 903.24 2529.19 948.496 2468.05 948.496ZM2468.05 896.047C2496.22 896.047 2517.8 872.969 2517.8 842.999C2517.8 813.028 2496.22 789.951 2468.05 789.951C2439.88 789.951 2418.3 813.028 2418.3 842.999C2418.3 872.969 2439.88 896.047 2468.05 896.047ZM2663.3 741.698V893.05H2752.61V944H2655.81C2621.64 944 2607.85 926.018 2607.85 897.545V741.698H2663.3Z" fill="white"/>
<path fill-rule="evenodd" clip-rule="evenodd" d="M866.626 867.625C758.6 975.651 584.316 977.037 474.59 871.783C364.865 977.037 190.581 975.651 82.5555 867.625C-25.4672 759.603 -26.8561 585.326 78.3891 475.6C-27.3433 365.904 -26.1156 191.26 82.0721 83.0721C190.257 -25.1124 364.894 -26.3432 474.59 79.3798C584.287 -26.3432 758.924 -25.1124 867.109 83.0721C975.297 191.26 976.524 365.904 870.792 475.6C976.037 585.326 974.648 759.603 866.626 867.625ZM200.556 352.375C200.556 394.581 234.771 428.796 276.977 428.796C319.183 428.796 353.399 394.581 353.399 352.375V283.349V199.532C353.399 157.326 319.183 123.111 276.977 123.111C234.771 123.111 200.556 157.326 200.556 199.532V352.375ZM683.462 338.051C717.852 338.051 745.731 310.172 745.731 275.781C745.731 241.391 717.852 213.512 683.462 213.512C649.072 213.512 621.193 241.391 621.193 275.781C621.193 310.172 649.072 338.051 683.462 338.051ZM683.462 428.624C767.875 428.624 836.305 360.194 836.305 275.781C836.305 191.369 767.875 122.938 683.462 122.938C599.049 122.938 530.619 191.369 530.619 275.781C530.619 360.194 599.049 428.624 683.462 428.624ZM505.606 507.073C498.974 513.705 488.221 513.705 481.589 507.073L473.803 499.287L466.016 507.073C459.384 513.705 448.631 513.705 441.999 507.073C435.367 500.441 435.367 489.688 441.999 483.056L449.786 475.27L441.561 467.045C434.929 460.413 434.929 449.66 441.561 443.028C448.193 436.396 458.946 436.396 465.578 443.028L473.803 451.253L482.027 443.028C488.66 436.396 499.412 436.396 506.044 443.028C512.676 449.66 512.676 460.413 506.044 467.045L497.82 475.27L505.606 483.056C512.238 489.688 512.238 500.441 505.606 507.073Z" fill="white"/>
</svg>
