<svg width="1080" height="1080" viewBox="0 0 1080 1080" fill="none" xmlns="http://www.w3.org/2000/svg">
<rect width="1080" height="1080" rx="200" fill="#00FF00"/>
<path fill-rule="evenodd" clip-rule="evenodd" d="M540.357 820.31C617.891 894.676 741.035 893.694 817.365 817.365C893.692 741.038 894.676 617.899 820.317 540.365C895.036 462.853 894.171 339.442 817.722 262.993C741.275 186.546 617.869 185.679 540.357 260.391C462.845 185.679 339.44 186.546 262.993 262.993C186.544 339.442 185.679 462.853 260.398 540.365C186.039 617.899 187.023 741.038 263.35 817.365C339.68 893.694 462.824 894.676 540.357 820.31Z" fill="black"/>
<path d="M400.815 507C370.992 507 346.815 482.823 346.815 453V345C346.815 315.177 370.992 291 400.815 291C430.639 291 454.815 315.177 454.815 345V404.226V453C454.815 482.823 430.639 507 400.815 507Z" fill="white"/>
<circle cx="687.928" cy="399" r="76" stroke="white" stroke-width="64"/>
<path fill-rule="evenodd" clip-rule="evenodd" d="M545.515 562.515C550.201 567.201 557.799 567.201 562.485 562.515C567.172 557.828 567.172 550.23 562.485 545.544L556.971 540.029L562.77 534.23C567.456 529.544 567.456 521.946 562.77 517.26C558.083 512.574 550.485 512.574 545.799 517.26L540 523.059L534.201 517.26C529.515 512.574 521.917 512.574 517.231 517.26C512.544 521.946 512.544 529.544 517.231 534.23L523.03 540.029L517.515 545.544C512.829 550.23 512.829 557.828 517.515 562.515C522.201 567.201 529.799 567.201 534.485 562.515L540 557L545.515 562.515Z" fill="white"/>
</svg>
